<svg id="圖層_1" data-name="圖層 1" xmlns="http://www.w3.org/2000/svg" viewBox="0 0 200 200"><defs><style>.cls-1{fill:#4d89a8;}</style></defs><title>_</title><path class="cls-1" d="M190.14,61.63c0,1,0,1.92,0,2.88a2.19,2.19,0,0,1-.72,1.83c-2.57,2.51-5.08,5.09-7.68,7.58a4.18,4.18,0,0,1-5.71.07c-2.91-2.6-5.68-5.34-8.65-7.87a102.07,102.07,0,0,0-71.11-24A101.25,101.25,0,0,0,32.57,68.36c-2.08,1.85-4.06,3.82-6.15,5.67a4.2,4.2,0,0,1-5.64-.09c-2.94-2.87-5.81-5.8-8.66-8.77a3.17,3.17,0,0,1-.79-1.81,19.16,19.16,0,0,1,.12-3.86,3.6,3.6,0,0,1,1-1.77A112.33,112.33,0,0,1,27.28,44.44,122.08,122.08,0,0,1,87,20.51a125.17,125.17,0,0,1,26-.27,120.46,120.46,0,0,1,54,18.43A127.36,127.36,0,0,1,189,56.47a3.21,3.21,0,0,1,1.15,2.82A20.28,20.28,0,0,0,190.14,61.63Z"/><path class="cls-1" d="M105,57.06c18.85.31,38.45,8,55,23.42,1.25,1.16,2.42,2.41,3.64,3.61a4.55,4.55,0,0,1,1.2,2.73,6.72,6.72,0,0,1-2.31,6.56c-2.62,2.33-5,4.92-7.53,7.36a4,4,0,0,1-5.3.1c-1.19-1.06-2.24-2.26-3.39-3.36-9.84-9.31-21.42-15.28-34.83-17.17-22.21-3.15-41.39,3.21-57.27,19.2-.38.39-.75.77-1.15,1.14a4,4,0,0,1-5.66,0c-3-3-6-6-8.94-9a2.73,2.73,0,0,1-.8-2c-.09-4.22,0-4.36,3-7.35A86,86,0,0,1,75.49,61C83.36,58.46,92.57,57.06,105,57.06Z"/><path class="cls-1" d="M101.31,94.59c13.85.07,25.45,5.34,35.12,15.16a6.72,6.72,0,0,1,1.9,4.48,5.87,5.87,0,0,1-1.91,5.14c-2.67,2.5-5.19,5.15-7.83,7.68a4.15,4.15,0,0,1-5.76-.07,63.67,63.67,0,0,0-5.2-4.68A27.75,27.75,0,0,0,80.71,126c-1.18,1.27-2.37,2.39-4.28,2.19a3.76,3.76,0,0,1-2.43-1q-4.41-4.44-8.84-8.84a3.16,3.16,0,0,1-1-2.43,20.38,20.38,0,0,1,.17-3.23,4.14,4.14,0,0,1,1-2A48.1,48.1,0,0,1,82.74,98.27,44.18,44.18,0,0,1,101.31,94.59Z"/><path class="cls-1" d="M101,133.53c11.42-.6,22.93,9.24,22.78,22.75a22.62,22.62,0,0,1-45.23-.37C78.62,141.51,91.22,133,101,133.53Z"/></svg>