<svg id="圖層_1" data-name="圖層 1" xmlns="http://www.w3.org/2000/svg" viewBox="0 0 200 200"><defs><style>.cls-1{fill:#4d89a8;}</style></defs><title>_</title><path class="cls-1" d="M11,60.17C13.1,54.44,14.54,48.33,17.45,43c11-20.1,34.2-29.78,56.59-24.17L146.45,37c4.35,1.09,5.16,2.07,5.16,6.51q0,24.06,0,48.13c0,5.24-.62,6-5.59,7.22-18.28,4.51-36.52,9.14-54.83,13.51-5.18,1.23-9,4.27-10.47,8.91-3.71,11.39-6.88,23-9.87,34.57-1.09,4.24.91,8.21,3.06,11.94,4.53,7.85.84,14.94-8.25,14.94-6.83,0-13.67-1.14-20.47-2.08a37.16,37.16,0,0,1-9.78-2.53c-7.45-3.29-11-10.2-9.81-18.68,1.57-11.45,3.46-22.86,4.81-34.33,1.08-9.16-.9-17.47-7.53-24.56-6-6.44-9.42-14.42-11.18-23.07A11.72,11.72,0,0,0,11,75.64ZM143.88,44.23l-3.91-1c-22.9-5.74-45.77-11.62-68.74-17.11a44.51,44.51,0,0,0-14.6-.93C32.24,27.72,14.91,50.81,19,74.85c4.16,24.37,27.67,40.5,51.54,34.87C94.2,104.14,117.7,98,141.28,92.14c1.9-.47,2.75-1.16,2.65-3.25-.18-3.51-.05-7-.05-10.54ZM68.55,175.1a14.57,14.57,0,0,0-.86-2.91c-6-8.6-5.29-17.81-2.58-27.21,2.67-9.24,5.35-18.48,8.08-27.9a52.46,52.46,0,0,1-35.68-4.52c0,6.52.49,12.6-.12,18.56-.93,9.16-2.65,18.23-4,27.35-1.27,8.64,1.71,12.76,10.24,14.25,4.93.86,9.85,1.89,14.82,2.46C61.58,175.53,64.79,175.16,68.55,175.1Z"/><path class="cls-1" d="M184.4,79.78c-4.29-1.58-8.55-3.26-12.89-4.69a94.45,94.45,0,0,0-11.62-3.23c-2.6-.5-5.08-.74-5-4S157.22,64,160,64c5.38-.05,10.45.92,15,4,3.65,2.44,7.7,3.12,12,3.15,2.54,0,4.17,1.2,4.07,4.11s-1.74,3.57-4.15,3.57h-2.1Z"/><path class="cls-1" d="M161.8,45.19c4.23,1.49,8.42,3.06,12.68,4.44a110.83,110.83,0,0,0,11.92,3.42c2.53.51,4.62.78,4.6,4s-2,3.83-4.65,3.85A31.3,31.3,0,0,1,170.94,57c-3.26-1.75-7.21-2.31-10.92-3.06-2.23-.45-4.65-.36-5.11-3.2-.41-2.52.47-4.42,3.41-4.59,1.05-.06,2.11,0,3.16,0Z"/><path class="cls-1" d="M161.11,81.09c4.56,1.58,9.3,2.79,13.63,4.86,3.66,1.75,7.17,3.21,11.3,3.09,3.46-.1,5.13,1.53,4.94,4.36-.23,3.44-2.74,3.68-5.29,3.6a31.46,31.46,0,0,1-15.28-4.38c-2.89-1.69-6.55-2.32-9.95-2.81-2.84-.4-5.74-.36-5.58-4.13s3.05-3.89,6-3.66Z"/><path class="cls-1" d="M61.61,42.59a25.32,25.32,0,0,1-.31,50.63A25.41,25.41,0,0,1,36,68.05C35.82,53.87,47.19,42.59,61.61,42.59Zm-.37,43A17.77,17.77,0,0,0,79.19,67.91,18.15,18.15,0,0,0,61.38,50a17.89,17.89,0,0,0-17.7,18A17.63,17.63,0,0,0,61.24,85.56Z"/></svg>