<svg id="圖層_1" data-name="圖層 1" xmlns="http://www.w3.org/2000/svg" viewBox="0 0 200 200"><defs><style>.cls-1{fill:#4d89a8;}</style></defs><title>_</title><path class="cls-1" d="M83.06,190.8a15.68,15.68,0,0,1-1.25-1.47c-1.59-2.41-.68-4.51,2.17-4.84a45.14,45.14,0,0,1,4.8-.08h15.6c5.67,0,6.54-.84,6.55-6.41,0-11.2,0-22.4,0-33.6V80.81c0-1.33.06-2.67-.07-4-.29-2.88-1.14-3.8-4.05-3.81q-22.18-.09-44.39,0c-3.21,0-4.14,1.08-4.23,4.45-.09,3.07,0,6.14-.05,9.2-.06,2.54-1.15,3.91-3,4S52.08,89.17,52,86.77c-.08-3.73-.15-7.47,0-11.19.24-5.13,3.8-8.47,9.06-8.79,6.21-.38,6.21-.38,6.21-6.67,0-2.53,0-5.06,0-7.6,0-4.63,1.39-8.72,5.31-11.48,1.58-1.1,1.83-2.41,1.8-4.08-.06-2.67-.07-5.34,0-8,.09-3.09.95-3.9,4-4.42,1-.18,2.77-.67,2.86-1.22a16.94,16.94,0,0,0-.31-5.44c-.06-.34-1.38-.64-2.13-.64-7.73,0-15.46,0-23.19,0-2,0-2.51,1-2.5,2.74a23.61,23.61,0,0,1-.29,4.37,2.7,2.7,0,0,1-3.15,2.38A2.54,2.54,0,0,1,47,23.85c0-2.66,0-5.33,0-8s2.43-3.57,4-5.06h34.4A5.36,5.36,0,0,1,87.73,16a29.66,29.66,0,0,0,0,4c0,1.32-.2,2.87.42,3.86.42.68,2.1.59,3.22.81a3.67,3.67,0,0,1,3.19,4c0,2.67.12,5.34,0,8a4.88,4.88,0,0,0,2.21,4.7,11.06,11.06,0,0,1,4.71,9.65c0,4,0,8,0,12,0,3.62.16,3.7,3.91,3.81.53,0,1.07,0,1.6,0,6.25-.42,9.93,4.34,10.16,9.89,0,.53,0,1.07,0,1.6q0,50.19-.07,100.38a20.2,20.2,0,0,1-1.53,7.29c-1.17,3-4.24,3.8-7,4.89ZM84.52,66.72c2.66,0,5.33-.07,8,0,2.09.07,2.78-.85,2.74-2.87-.1-4.26,0-8.52-.06-12.78-.08-3.68-2.3-5.89-6-6-2.79-.1-5.59,0-8.39,0-4.66.05-7,2-7.22,6.61-.22,4.11,0,8.25-.08,12.38,0,2.16,1.13,2.74,3,2.71C79.19,66.7,81.86,66.73,84.52,66.72ZM80.61,34.93c0,3.59.2,3.77,3.85,3.78s4-.25,3.94-4.11c0-3.59-.21-3.77-3.86-3.77S80.58,31,80.61,34.93Z"/><path class="cls-1" d="M35.86,190.8A34.46,34.46,0,0,1,32.31,189a8.59,8.59,0,0,1-4.36-7.6c0-16.92-.05-33.84,0-50.76a8.36,8.36,0,0,1,6.51-8.51c2.61-.71,3.36-2,3.17-4.47a73.9,73.9,0,0,1,0-7.59c.18-6.17,4.05-10.29,10.15-10.64a66,66,0,0,1,8.78.06,10,10,0,0,1,9.55,9.93c.14,3.05.11,6.13,0,9.19a2.71,2.71,0,0,0,2.17,3.16c5.95,2,7.55,4.29,7.56,10.56,0,15.19-.22,30.38.12,45.56.15,6.46-1.92,10.77-8.11,12.87Zm33.76-34.63q0-11.38,0-22.77c0-4.87-.74-5.69-5.42-5.72q-12.39-.08-24.77,0c-4.45,0-5.31.95-5.31,5.46q0,23,0,45.94c0,4.26.93,5.28,5.06,5.31q12.78.09,25.56,0c4,0,4.86-1,4.87-5C69.65,171.61,69.62,163.89,69.62,156.17ZM52.19,121.4v0c1.86,0,3.72,0,5.59,0,1.48,0,2.18-.64,2.16-2.15,0-3.06.12-6.13,0-9.19-.15-2.75-1.56-4.1-4.29-4.28a59.48,59.48,0,0,0-7.19,0c-2.81.15-4.29,1.39-4.49,4.1a71.08,71.08,0,0,0,0,9.57,2.73,2.73,0,0,0,1.87,1.87A54.24,54.24,0,0,0,52.19,121.4Z"/><path class="cls-1" d="M126.26,190.8c-.28-.28-.68-.5-.82-.84-.49-1.13-1.35-2.37-1.2-3.45.22-1.64,1.79-2.09,3.39-2.09,6.53,0,13.05,0,19.58,0,2.66,0,5.33,0,8,0,4.22,0,4.35-.17,4.69-4.49.24-2.91.5-5.83.72-8.74.88-11.4,1.72-22.81,2.62-34.21.36-4.5.78-9,1.29-13.49.53-4.67.5-4.79-4.07-4.8H129.29c-3.85,0-5.36-.94-5.26-3.22s1.45-2.94,5.13-3q18.59,0,37.16,0c4.33,0,5,.62,4.72,4.84-.67,9.42-1.51,18.82-2.26,28.23-.64,7.95-1.22,15.91-1.87,23.86-.48,6-.93,11.93-1.65,17.87-.15,1.23-1.44,2.33-2.2,3.49Z"/><path class="cls-1" d="M173.46,10.8a9.31,9.31,0,0,1,1.48,1.31c1.68,2.19.79,4.57-1.88,5a21.31,21.31,0,0,1-3.2.09c-9.18,0-18.37,0-27.56,0-4.66,0-5,.37-5,5q0,38.74,0,77.49a14.76,14.76,0,0,1-.33,3.94c-.43,1.55-1.72,2.66-3.31,2.09a5,5,0,0,1-2.43-2.62c-.43-1-.17-2.36-.17-3.56,0-25.7.15-51.4-.12-77.1-.06-5.91,1.87-9.67,7.34-11.65Z"/><path class="cls-1" d="M158.81,44.46c4.4,0,8.79-.06,13.18,0,2.71.05,3.79,1.05,3.75,3.08s-1.23,3-3.86,3.06c-6.92.08-13.85,0-20.77.05-2.65,0-3.13.66-2.94,2.95.16,1.88,1.36,2,2.79,2,5.33,0,10.66,0,16,0l5.2,0c2,0,3.41.64,3.59,2.85.15,2-1.11,3.25-3.59,3.3-4.93.11-9.86,0-14.78.05-3.6,0-7.2,0-10.79,0-3.44,0-4.4-.82-4.57-4.07a90.23,90.23,0,0,1,0-9.59c.16-3,.9-3.63,4-3.69C150.29,44.39,154.55,44.46,158.81,44.46Z"/><path class="cls-1" d="M158.81,39.48c-4.26,0-8.53.05-12.79,0-3-.05-3.85-.79-4-3.75a89.8,89.8,0,0,1,0-10c.16-2.71,1.08-3.54,3.8-3.56,8.79-.07,17.58,0,26.37,0,2,0,3.35.82,3.5,3s-1.07,3.13-3.65,3.16c-6.93.07-13.86,0-20.78,0-1.47,0-3-.22-3.13,2s.34,3,3,3c6,.06,12,0,18,0,.94,0,1.87,0,2.8,0,2.6.12,3.8,1.08,3.84,3s-1.13,3-3.73,3.1C167.6,39.53,163.21,39.48,158.81,39.48Z"/><path class="cls-1" d="M141.93,86.37c0-4.93-.07-9.86,0-14.78.08-4.24.69-4.81,4.94-4.83,8,0,16,0,24,0a21.37,21.37,0,0,1,2.39.12,2.92,2.92,0,0,1,.45,5.66,14.38,14.38,0,0,1-3.53.41c-5.59,0-11.18,0-16.78,0-5.33,0-5.28-1-5.3,5.49,0,7.05,0,14.11,0,21.17a32.76,32.76,0,0,1-.18,3.58,2.9,2.9,0,0,1-5.78-.07,33.09,33.09,0,0,1-.21-3.59c0-4.39,0-8.79,0-13.18Z"/></svg>