<svg id="圖層_1" data-name="圖層 1" xmlns="http://www.w3.org/2000/svg" viewBox="0 0 200 200"><defs><style>.cls-1{fill:#4d89a8;}</style></defs><title>_</title><path class="cls-1" d="M72.25,166.3v7c0,3.84-1.77,5.61-5.57,5.62-2,0-4,0-6,0-3.16,0-5-1.89-5.06-5,0-2.93,0-5.86,0-8.79a1.75,1.75,0,0,0-1.15-1.9c-3.65-1.55-5.73-4.47-7.06-8.08a47.5,47.5,0,0,1-2.7-14.24,70.58,70.58,0,0,1,0-10,29.53,29.53,0,0,1,4.72-12.72c.55-.88,1.3-.85,2.13-.85H80.45c5,0,10,.09,14.94-.05,4.29-.12,8.33-1.2,11.67-4.12a13.38,13.38,0,0,0,3.84-5.79,1.71,1.71,0,0,1,2-1.28c7.54.38,15.09.59,22.62,1.1,4.65.32,9.28,1.08,13.92,1.63.63.07,1.27.06,2.12.1a9.49,9.49,0,0,0-.1-1.57A72.86,72.86,0,0,0,143,85.87a3.58,3.58,0,0,0-2.24-1.77,67.9,67.9,0,0,0-14.82-2.59q-6.3-.39-12.62-.67c-.93,0-1.4-.37-1.39-1.36,0-1.93,0-3.86,0-5.8,0-1,.44-1.39,1.38-1.34,6.08.3,12.17.47,18.23,1a75.57,75.57,0,0,1,10.33,1.76A13.46,13.46,0,0,1,151,82.38a121.48,121.48,0,0,1,9.14,22.55c.16.55.36,1.1.66,2a15.15,15.15,0,0,0,1.94-1.64,8,8,0,0,0,1.14-2,4.66,4.66,0,0,1,4.59-2.92c2.23,0,4.46-.06,6.68,0,2.72.08,3.9,1.33,4,4.08,0,.93,0,1.87,0,2.81-.07,2.79-1.32,4-4.16,4.06-3.33,0-6.67,0-10,0-.57,0-1.13,0-2.08.1.65.7,1.06,1.16,1.49,1.59a29.88,29.88,0,0,1,8.82,18.48,57.25,57.25,0,0,1-2.41,22.51c-1.27,4.07-3.43,7.45-7.57,9.15-.89.37-1,1-1,1.84,0,2.81,0,5.63,0,8.44,0,3.58-1.83,5.37-5.43,5.38h-5.27c-4.23,0-5.89-1.64-5.89-5.81v-6.76A549.81,549.81,0,0,1,72.25,166.3Zm36.69-38h-17c-2.48,0-3.28,1-2.56,3.43,1.17,3.91,2.39,7.81,3.62,11.71.55,1.72,1,2,2.79,2H122.1c1.83,0,2.27-.3,2.8-2q1.83-5.85,3.59-11.72c.73-2.44,0-3.43-2.52-3.43Zm41.52,11.53c3.21,0,6.43,0,9.64,0,2,0,2.4-.45,2.42-2.35,0-2.17,0-4.33,0-6.49,0-2.36-.31-2.67-2.6-2.68-5,0-10,.05-15.08,0a4.19,4.19,0,0,0-3.92,2.14,15,15,0,0,0-2.25,7.1c-.12,1.87.27,2.3,2.14,2.31C144,139.8,147.24,139.78,150.46,139.79Zm-83.17,0h10c1.18,0,2-.41,1.92-1.71a14.55,14.55,0,0,0-2.65-8.22,3.51,3.51,0,0,0-3-1.6c-5.39,0-10.78,0-16.17,0-1.61,0-2,.48-2.06,2.14,0,2.28,0,4.57,0,6.85s.39,2.51,2.61,2.52C61.08,139.8,64.19,139.79,67.29,139.78Z"/><path class="cls-1" d="M61.14,111.39c-10.37,0-20.73,0-31.1,0a13.57,13.57,0,0,1-9.22-3.26A12.93,12.93,0,0,1,16.3,98q-.07-28.65,0-57.28A13.12,13.12,0,0,1,29.77,27.3q31.37-.06,62.72,0A13.12,13.12,0,0,1,106,40.73q.08,28.56,0,57.1a13.18,13.18,0,0,1-13.57,13.55C82,111.42,71.56,111.39,61.14,111.39Zm-17-42.06q0,11.78,0,23.55c0,1.8.1,1.89,1.9,1.9q3.85,0,7.73,0c1.78,0,1.89-.11,1.89-1.89,0-4.46,0-8.91,0-13.36,0-1.22.43-1.66,1.65-1.63,3.22,0,6.44,0,9.66,0a11.19,11.19,0,0,0,11.2-11.14c0-3.86,0-7.73,0-11.59A11.17,11.17,0,0,0,66.92,43.89c-6.91,0-13.82,0-20.73,0-2,0-2.07,0-2.07,2.07Z"/><path class="cls-1" d="M55.65,60.8c0-1.35,0-2.7,0-4,0-1,.42-1.37,1.38-1.36,2.22,0,4.45,0,6.67,0a2.68,2.68,0,0,1,2.91,2.84c.07,1.75.07,3.51,0,5.27a2.71,2.71,0,0,1-2.93,2.83c-2.22.06-4.45,0-6.67,0-1,0-1.38-.42-1.36-1.38C55.67,63.61,55.65,62.2,55.65,60.8Z"/></svg>