<svg id="圖層_1" data-name="圖層 1" xmlns="http://www.w3.org/2000/svg" viewBox="0 0 200 200"><defs><style>.cls-1{fill:#4d89a8;}</style></defs><title>_</title><path class="cls-1" d="M190.21,131.79a4.41,4.41,0,0,0-.08-.73.36.36,0,0,0,0-.1,3.83,3.83,0,0,0-.2-.63,1.67,1.67,0,0,0-.08-.2s0-.09-.05-.13L177.2,104.34a10.5,10.5,0,0,0,6.6-9.74V44.84a11,11,0,0,0-11-11,11.19,11.19,0,0,0-2,.18,10.89,10.89,0,0,0-6,3.26c-10.07-11.55-38.42-17.69-65.42-17.69-26.35,0-54,5.85-64.67,16.88a10.84,10.84,0,0,0-5.14-2.45,11.27,11.27,0,0,0-2-.18,11,11,0,0,0-11,11V94.6a10.51,10.51,0,0,0,6.6,9.74L10.66,130l-.06.13-.08.2a3.78,3.78,0,0,0-.19.63l0,.1a3.54,3.54,0,0,0-.07.73s0,.07,0,.1v33a4.31,4.31,0,0,0,4.3,4.3H26.13v10.59a4.3,4.3,0,0,0,4.3,4.3H48.8a4.31,4.31,0,0,0,4.31-4.3V169.17h95.78v10.59a4.31,4.31,0,0,0,4.3,4.3h18.37a4.31,4.31,0,0,0,4.31-4.3V169.17h10a4.31,4.31,0,0,0,4.31-4.3v-33S190.21,131.83,190.21,131.79ZM110.83,61a4.47,4.47,0,0,1,4.47-4.46H149A4.47,4.47,0,0,1,153.46,61V80.58A4.47,4.47,0,0,1,149,85.05H115.3a4.47,4.47,0,0,1-4.47-4.47ZM47,61a4.47,4.47,0,0,1,4.47-4.46h33.7A4.47,4.47,0,0,1,89.61,61V80.58a4.47,4.47,0,0,1-4.47,4.47H51.44A4.47,4.47,0,0,1,47,80.58Zm-25.54,66.6L40.77,88.12a13.06,13.06,0,0,0,10.67,5.54h33.7a13.07,13.07,0,0,0,11.33-6.58H104a13,13,0,0,0,11.33,6.58H149a13,13,0,0,0,10.67-5.54L179,127.59Z"/></svg>