<svg id="圖層_1" data-name="圖層 1" xmlns="http://www.w3.org/2000/svg" viewBox="0 0 200 200"><defs><style>.cls-1{fill:#4d89a8;}</style></defs><title>_</title><path class="cls-1" d="M190.2,48.4v82.4c0,.36-.1.72-.12,1.08a23.93,23.93,0,0,1-8.87,17.69,24.7,24.7,0,0,1-16.46,5.67q-38.15,0-76.28,0-24.69,0-49.38,0A64,64,0,0,1,31.5,155,24.62,24.62,0,0,1,10.2,133.4V45.8c.12-.65.22-1.31.36-2A24.39,24.39,0,0,1,23.81,26.55,25.4,25.4,0,0,1,33.4,24H167c.23,0,.46.09.69.11a24,24,0,0,1,13.52,5.56A24.68,24.68,0,0,1,190.2,48.4ZM99.43,32.73H72.24q-15.94,0-31.89,0A20.78,20.78,0,0,0,28,36.61a20,20,0,0,0-8.88,15.6c-.31,5.25-.18,10.52-.18,15.79q0,22,0,44.09c0,5-.11,10.07.18,15.09a21,21,0,0,0,20.5,19.32c10.06.06,20.13,0,30.19,0h44c15.73,0,31.46,0,47.19,0a21,21,0,0,0,20.12-16.16,35.12,35.12,0,0,0,.61-7.54c.06-16.63,0-33.26,0-49.89,0-6.67.07-13.33-.09-20-.28-11.09-9.94-20.27-21-20.22-8.13,0-16.26,0-24.39,0Z"/><path class="cls-1" d="M100.09,171.35h57.19c1.55,0,1.55,0,1.55,1.55,0,1.83,0,3.66,0,5.49,0,.92-.31,1.23-1.22,1.22-7.8,0-15.6,0-23.4,0H42.76c-1.37,0-1.41,0-1.41-1.39,0-1.9,0-3.8,0-5.7,0-.86.27-1.17,1.15-1.17,7.8,0,15.6,0,23.4,0h34.19Z"/><path class="cls-1" d="M125.38,99.59c1.1-1.87,2.07-3.53,3-5.2q6-10.42,12-20.86a4.23,4.23,0,0,1,3.13-2.39,4,4,0,0,1,4.12,1.65,4.11,4.11,0,0,1,.22,4.62c-2.09,3.67-4.23,7.32-6.35,11q-6.09,10.55-12.19,21.1a4.44,4.44,0,0,1-5.13,2.34,4.34,4.34,0,0,1-2.86-2.31q-4.89-8.48-9.8-17-4.32-7.48-8.65-15a4.18,4.18,0,0,1-.1-4.54,4.06,4.06,0,0,1,3.88-2,4.31,4.31,0,0,1,3.61,2.49q3.51,6.1,7,12.2l7.23,12.56C124.82,98.68,125.05,99,125.38,99.59Z"/><path class="cls-1" d="M73.81,69.81c6.13,0,12.26,0,18.39,0,3.27,0,5.32,2.58,4.47,5.46a4.2,4.2,0,0,1-4,3c-4.4,0-8.8,0-13.2,0-1.33,0-1.36,0-1.36,1.34,0,9.53,0,19.07,0,28.6a6.8,6.8,0,0,1-.66,3A4,4,0,0,1,73,113a4,4,0,0,1-3.22-3.41c-.17-2.25-.14-4.52-.15-6.79q0-11.59,0-23.19c0-1.39,0-1.39-1.41-1.39-4.4,0-8.8,0-13.2,0a4.2,4.2,0,1,1,.31-8.39l6.6,0Z"/></svg>