<svg id="圖層_1" data-name="圖層 1" xmlns="http://www.w3.org/2000/svg" viewBox="0 0 200 200"><defs><style>.cls-1{fill:#4d89a8;}</style></defs><title>_</title><path class="cls-1" d="M190.65,190.8H11.29V116.12H75.56c.26-1.71.48-3.11.74-4.82H95.49l1,4.48h9.19l.69-4.5H125.5l.92,4.52H171c0-4.85.46-9.68-.22-14.34-.29-2-2.73-4.75-4.63-5.16-3.23-.7-5,1.89-5.12,5.22-.05,1.31,0,2.62,0,4.2h-9.49c-3.33-13.21,8.94-22.86,19.59-18.78A15,15,0,0,1,181,101.18c.11,4.79,0,9.58,0,14.71h9.66ZM21.24,180.66H60.62V126.25H21.24Zm159.5.12V126.31H141.35v54.47ZM71.42,156.1v24.56h59.19V156.1Zm-.19-10.45H130.6V126.26H71.23Z"/><path class="cls-1" d="M141,75.82H61c0-8.72-.1-17.31.11-25.9,0-1.15,1.42-2.48,2.48-3.36,6.18-5.07,12.32-10.19,18.74-14.94,2.88-2.14,4-4.44,3.71-7.94-.3-4-.07-8-.07-12.31h30c0,4.22.23,8.5-.07,12.75-.24,3.38,1,5.46,3.67,7.45,6.39,4.8,12.58,9.85,18.71,15,1.23,1,2.52,2.83,2.57,4.31C141.13,59,141,67.14,141,75.82Zm-10.35-10v-9.4H71.26v9.4ZM96,21.09a42.92,42.92,0,0,0,0,5.83c.68,4.58-.8,7.83-4.79,10.4-3.5,2.25-6.55,5.21-10.3,8.28h40.22c-4.73-3.81-8.64-7.16-12.75-10.23-5.21-3.89-.47-9.86-3.17-14.28Z"/><path class="cls-1" d="M26,46.21h9.84V66.27C47.53,71.62,52.72,80.1,50.63,89.83a20,20,0,0,1-39.34-.32C9.4,79.78,14.64,71.37,26,66.41V46.21ZM30.84,76A10,10,0,1,0,41,86.09,10.06,10.06,0,0,0,30.84,76Z"/><path class="cls-1" d="M50,141.76c-1.33-1.91-3.87-4-3.67-5.68s2.85-4.37,4.76-4.7c1.32-.23,4.38,2.67,4.51,4.35.15,1.88-2.11,4-3.32,6Z"/><path class="cls-1" d="M149.74,141.7c-1.23-2-3.52-4-3.39-5.9.11-1.68,3.12-4.63,4.43-4.42,1.92.31,4.6,2.79,4.85,4.62s-2.29,3.81-3.6,5.74Z"/><path class="cls-1" d="M91.69,137.26c-2,1.23-4.16,3.67-5.87,3.37s-4.2-3.1-4.44-5c-.16-1.31,2.92-4.19,4.61-4.24,1.88,0,3.83,2.31,5.76,3.62Z"/><path class="cls-1" d="M102.38,130.33c1.19,2,3.59,4.25,3.25,5.95s-3.2,4.12-5.14,4.32c-1.31.13-4.14-3-4.14-4.71,0-1.89,2.41-3.79,3.77-5.69Z"/><path class="cls-1" d="M121.71,137.18c-2,1.26-4.11,3.72-5.83,3.45s-4.23-3-4.5-5c-.18-1.31,2.86-4.24,4.54-4.31,1.89-.08,3.87,2.25,5.81,3.54Z"/></svg>