<svg id="圖層_1" data-name="圖層 1" xmlns="http://www.w3.org/2000/svg" viewBox="0 0 200 200"><defs><style>.cls-1{fill:#4d89a8;}</style></defs><title>_</title><path class="cls-1" d="M162.44,144.68V17.14H128.36l8.77,14.64H115.38c3.2-5.13,5.83-9.33,9.57-15.34H55.43c-6.54,0-13.1.23-19.61-.19-1.67-.1-3.21-2.27-4.82-3.49a30.44,30.44,0,0,1,4.4-3.35c.94-.49,2.33-.15,3.52-.15q61.52,0,123,0c2.31,0,4.62.37,7.41.61V190.24c-2.84.16-5.69.46-8.54.46-40.12,0-80.24-.12-120.36.15-7.07.05-10.29-1.55-9.79-9.32a240,240,0,0,0,0-28.51c-.39-6.88,2.29-8.51,8.75-8.47,37.74.26,75.48.13,113.23.13Z"/><path class="cls-1" d="M30.88,133.14V20.4c9.5,2.07,18.29,3.78,26.93,6.09,1.45.39,3.15,3.36,3.16,5.15.19,30.23.25,60.46-.13,90.68,0,2.11-3.36,5.38-5.72,6C47.46,130.41,39.55,131.51,30.88,133.14Z"/><path class="cls-1" d="M85.62,21V132.59c-5.09-1.48-9.83-2.24-13.91-4.31-2-1-3.77-4.45-3.79-6.81-.26-29.68-.12-59.36-.22-89,0-4.11,1-6.71,5.48-7.61C77.15,24,81,22.49,85.62,21ZM82.48,73.79H80.37V85.06h2.11Z"/><path class="cls-1" d="M137.22,38.44H115c0-.58,0-2.37-.06-3h22.19C137.15,36.07,137.18,37.86,137.22,38.44Z"/><circle class="cls-1" cx="126.07" cy="48.32" r="2.01"/><circle class="cls-1" cx="116.93" cy="53.38" r="2.01"/><circle class="cls-1" cx="135.21" cy="53.38" r="2.01"/><circle class="cls-1" cx="126.07" cy="61.25" r="2.01"/><circle class="cls-1" cx="116.93" cy="66.3" r="2.01"/><circle class="cls-1" cx="135.21" cy="66.3" r="2.01"/><circle class="cls-1" cx="126.07" cy="74.24" r="2.01"/><circle class="cls-1" cx="116.93" cy="79.29" r="2.01"/><circle class="cls-1" cx="135.21" cy="79.29" r="2.01"/><circle class="cls-1" cx="126.07" cy="86.44" r="2.01"/></svg>