<svg id="圖層_1" data-name="圖層 1" xmlns="http://www.w3.org/2000/svg" viewBox="0 0 200 200"><defs><style>.cls-1{fill:#4d89a8;}</style></defs><title>_</title><path class="cls-1" d="M73.38,36.33c5.81,0,11.35.28,16.84-.08a16.57,16.57,0,0,1,12.63,4.27c4.68,4,9.75,7.55,14.71,11.22a5.91,5.91,0,0,1,2.49,4.55Q122,82,124,107.79q2,26.22,4.1,52.45c.64,8,1.33,16,1.95,24a4.76,4.76,0,0,1-6.61,4.67,18.23,18.23,0,0,0-16.33,0,6.23,6.23,0,0,1-2.64.37q-43.56,0-87.14,0c-4,0-5.93-2-5.63-6Q13.36,161,15.1,138.67,16.92,114.85,18.72,91q1.34-17.49,2.7-35a5.51,5.51,0,0,1,2.35-4.22c6.24-4.62,12.39-9.38,18.7-13.92a8.7,8.7,0,0,1,4.58-1.5c6.3-.17,12.6-.07,18.9-.07H68.2c.33-2,.52-3.87.94-5.67A24,24,0,0,1,92,11.75c17.22-.24,34.45-.27,51.67,0a23.69,23.69,0,0,1,23.07,22.36c.46,8.91.18,17.86.2,26.79,0,10.8,0,21.59,0,32.39v2.19h2.18c4.88,0,9.77,0,14.65,0,3.47,0,5.42,1.91,5.43,5.33q0,19.29,0,38.56c0,3.64-1.84,5.44-5.47,5.45H145.21c-3.32,0-5.3-1.91-5.31-5.26q-.06-19.38,0-38.75c0-3.42,2-5.31,5.49-5.33,5.51,0,11,0,16.8,0v-2.2q0-28.05,0-56.1c0-12.25-8.48-20.66-20.77-20.66q-23.71,0-47.43,0c-10.61,0-18.57,6.61-20.36,16.82C73.48,34.25,73.47,35.15,73.38,36.33Zm-5.24,9.83c-6.74,0-13.22,0-19.71,0a3.25,3.25,0,0,0-1.7.75c-4.84,3.6-9.69,7.2-14.46,10.9a3.73,3.73,0,0,0-1.21,2.35c-.4,4-.65,8.07-1,12.1Q28.27,96,26.42,119.75l-3.75,48.81c-.27,3.56-.51,7.13-.77,10.76h81.24c.12-1.63.26-3.1.34-4.57q1.62-27.8,3.22-55.61,1.74-29.73,3.45-59.45a2.81,2.81,0,0,0-1-2c-2-1.67-4.19-3.2-6.29-4.77-3.18-2.38-6.05-5.68-9.62-6.86s-7.89-.27-11.87-.27H73.17c0,2.34-.06,4.44,0,6.54,0,.36.79.93,1.24.95,1.86.12,3.73,0,5.59.06,2,0,3.16,1,3.15,2.56S82,58.41,80,58.43s-4.2,0-6.36,0c-.29,2.17.53,4.82-2.68,5.05-1.66.12-2.22-.92-2.75-4.67H61.76c-2.14,0-3.37-1-3.36-2.58s1.15-2.51,3.39-2.52,4.19,0,6.35,0Zm81.72,59.36V134.9h29.42V105.6H167.45c-.19,2.06.4,4.66-2.44,4.83-3.45.21-2.55-2.92-3-4.91Zm-36.59-10h-.36c-1.59,27.46-3.18,54.92-4.76,82.15l11.39-.62Z"/><path class="cls-1" d="M32.83,174.1c-2.39,0-3.58-2-2.61-3.7a6.11,6.11,0,0,1,1.55-1.66l61-49.6.45-.36c1.57-1.23,3.18-1.31,4.12-.22s.71,2.82-.91,4.15l-33.36,27.1-28.27,23A23.52,23.52,0,0,1,32.83,174.1Z"/><path class="cls-1" d="M47,174.51a9.91,9.91,0,0,1-2-2c-.66-1.24-.15-2.35.92-3.21l11.82-9.6Q74.79,145.8,91.92,131.9c.45-.36.93-1,1.39-1,1,0,2.44,0,3,.68s.25,2,.07,3c-.08.45-.77.8-1.22,1.17q-22.87,18.58-45.77,37.17C48.76,173.45,48,173.86,47,174.51Z"/><path class="cls-1" d="M83.49,120.26a11.62,11.62,0,0,1-1.65,2.24q-23.28,19-46.62,37.93c-1.47,1.19-2.94,1.08-3.87-.19s-.55-2.76,1-4q17.49-14.22,35-28.41c3.78-3.08,7.52-6.23,11.4-9.18a4.31,4.31,0,0,1,3.15-.51C82.47,118.27,82.87,119.4,83.49,120.26Z"/><path class="cls-1" d="M96.33,145.84a11.62,11.62,0,0,1-1.63,2.31q-15.36,12.56-30.77,25c-1.54,1.25-2.94,1.23-3.89,0s-.67-2.83.8-4q11.86-9.69,23.74-19.32c2.39-2,4.72-4,7.22-5.77a3.65,3.65,0,0,1,2.82-.29C95.28,144,95.68,145,96.33,145.84Z"/><path class="cls-1" d="M68.47,120.57a10.1,10.1,0,0,1-1.55,2q-15.36,12.56-30.77,25c-1.34,1.09-2.84,1-3.75-.1s-.75-2.71.66-3.87Q40.8,137.3,48.59,131c5.08-4.13,10.15-8.27,15.26-12.36,1.8-1.45,3.79-1,4.36.83C68.29,119.72,68.33,120,68.47,120.57Z"/><path class="cls-1" d="M92.62,156c.77.6,1.72,1,2,1.67a4.27,4.27,0,0,1-.13,2.51c-.11.42-.67.75-1.06,1.07q-7.31,6-14.63,11.89c-1.58,1.28-2.88,1.32-3.89.18s-.86-2.83.75-4.15q7.3-6,14.64-11.87A18.49,18.49,0,0,1,92.62,156Z"/><path class="cls-1" d="M35.21,135.88c-.74-.59-1.9-1.06-2-1.73a4,4,0,0,1,.66-3.07,40,40,0,0,1,4.55-3.82c3.58-2.91,7.1-5.9,10.79-8.66a3.77,3.77,0,0,1,3.26-.27c.61.27.8,1.81.85,2.79,0,.47-.65,1.06-1.13,1.45q-7.42,6.09-14.91,12.12A17.15,17.15,0,0,1,35.21,135.88Z"/></svg>