<svg id="圖層_1" data-name="圖層 1" xmlns="http://www.w3.org/2000/svg" viewBox="0 0 200 200"><defs><style>.cls-1{fill:#4d89a8;}</style></defs><title>_</title><path class="cls-1" d="M10.8,90V87.6c1-.81,2-1.7,3.14-2.43Q55.55,58,97.15,30.72c2.59-1.7,4.56-1.88,7.2-.07,7,4.83,14.22,9.38,21.37,14,1,.62,2,1.14,3.2,1.83.09-1,.17-1.5.17-2,0-7.6,0-15.2,0-22.8,0-3.47.74-4.18,4.21-4.29,2.4-.07,4.8,0,7.2,0,5.17,0,5.54.37,5.54,5.38,0,10.54.11,21.07-.07,31.6,0,2.77.92,4.27,3.19,5.73,12.55,8,25,16.26,37.47,24.44,1.43.94,2.76,2,4.14,3.08V90c-1.89,2.7-3.75,5.41-5.67,8.08-1.62,2.25-2.63,2.48-5,1.15-1.58-.87-3.11-1.85-4.29-2.56l-4.5,9.25a13.16,13.16,0,0,1,3.74,8.15c.31,4.15-1.47,7.42-4.15,10.43a13.09,13.09,0,0,1,4.18,9.4c0,3.79-1.63,6.82-4.22,9.52a13.28,13.28,0,0,1,4.22,9.47c.06,3.83-1.77,6.79-4.11,9.46.67.81,1.22,1.4,1.67,2.05,5.6,8.1,1.26,18.21-8.47,19.65a29,29,0,0,1-4.38.18q-59,0-117.92,0a27.76,27.76,0,0,1-5.16-.37c-6.64-1.23-10.86-6.49-10-13.15.39-3,2.1-5.77,3.34-9-5-6.43-5-10.54.46-18.57a13,13,0,0,1-4-8c-.39-4.26,1.26-7.72,4.08-10.78a12.78,12.78,0,0,1-.4-18.45l-4.49-9.31c-1.14.72-2.35,1.51-3.59,2.25-3.18,1.92-4,1.72-6.16-1.41C14.29,94.94,12.54,92.47,10.8,90Zm109.33,88.44V108.69H81.48v69.75Zm32.06-89H49.4a15.69,15.69,0,0,1,.13,13.13H152.31C150.07,98.06,150.28,93.8,152.19,89.4ZM100.8,35.15,17.62,89.47l2.54,3.82c1.26-.79,2.38-1.46,3.48-2.18C48,75.19,72.48,59.34,96.78,43.27c3.09-2,5.16-1.89,8.13.08,24.32,16,48.74,31.93,73.13,47.86,1.09.71,2.23,1.35,3.46,2.1L184,89.44ZM75.31,159.57V146.31H49.21c2.5,4.34,2,8.68.26,13.25,3,0,5.66.05,8.31,0,2.08-.06,3.81.37,4.13,2.73.23,1.77-1.5,2.91-4.31,2.94-2.65,0-5.3,0-8.24,0a15.08,15.08,0,0,1,0,13.19H75.3V165.2c-1.6,0-3,.08-4.45,0-1.85-.13-3.1-1.17-3-3.05a2.69,2.69,0,0,1,3-2.57C72.22,159.59,73.55,159.57,75.31,159.57Zm77.05-13.5c-3.72,0-6.78,0-9.83,0-1.74,0-3-1.1-2.75-2.69.16-1,1.4-2.14,2.43-2.71.83-.46,2.08-.19,3.14-.19,2.19,0,4.38,0,6.38,0a47,47,0,0,1-1-6.68,40.38,40.38,0,0,1,.93-6.21H126.28v12.73c1.63.07,3.07.05,4.49.22,1.78.2,3.12,1.13,2.94,3.07a2.67,2.67,0,0,1-3,2.51c-1.41,0-2.83,0-4.37,0v13.28h25.85A15,15,0,0,1,152.36,146.07ZM97.81,50.16c-.42,0-.74-.1-.92,0-7.69,5-15.39,9.91-23,15a3.21,3.21,0,0,0-1.29,2.22c-.11,5.27-.06,10.56-.06,16h25.3ZM129.1,83.52c0-5.17-.11-9.94.05-14.69a4.53,4.53,0,0,0-2.46-4.49c-6.85-4.33-13.58-8.82-20.37-13.23A20.86,20.86,0,0,0,103.94,50V83.52Zm22.93,95c-1.78-6.1-1.78-6.63-.15-13H126.39v13ZM49.3,121.43h26V108.54H49.44A14.25,14.25,0,0,1,49.3,121.43ZM152,108.7H126.28v12.47c4.53.88,23,.69,25.75-.24C150.07,116.87,150.33,112.76,152,108.7ZM49.54,140.13H75.27V127.5H49.48A14.85,14.85,0,0,1,49.54,140.13Zm85.24-117v4.17c0,6.24.34,12.5-.12,18.71-.33,4.5,1.85,6.4,5.44,7.77V23.08ZM66.55,83.51V69.85L46.53,83l.33.52ZM135,69.85V83.44h20.83ZM38.55,89.29a6.7,6.7,0,0,0,.14,13.4,6.7,6.7,0,0,0-.14-13.4ZM45.26,153A6.65,6.65,0,0,0,39,146.14a6.81,6.81,0,0,0-6.84,6.79,6.66,6.66,0,0,0,6.58,6.6A6.45,6.45,0,0,0,45.26,153Zm124.21-.07a6.78,6.78,0,0,0-6.42-6.8,6.67,6.67,0,0,0-6.7,6.46,6.53,6.53,0,0,0,6.56,6.94A6.67,6.67,0,0,0,169.47,152.94Zm0,18.82a6.59,6.59,0,0,0-6.62-6.52,6.41,6.41,0,0,0-6.5,6.54,6.62,6.62,0,0,0,6.33,6.81A6.81,6.81,0,0,0,169.46,171.76Zm-6.79-82.47a6.71,6.71,0,0,0,.17,13.4,6.7,6.7,0,1,0-.17-13.4Zm.47,19.11a6.35,6.35,0,0,0-6.79,6.21,6.59,6.59,0,0,0,6.48,7,6.68,6.68,0,0,0,6.65-6.51A6.5,6.5,0,0,0,163.14,108.4ZM45.26,172a6.43,6.43,0,0,0-6.33-6.72,6.57,6.57,0,0,0-6.78,6.33,6.56,6.56,0,1,0,13.11.39Zm0-57.06a6.28,6.28,0,0,0-6.47-6.5,6.52,6.52,0,0,0-6.65,6.42,6.72,6.72,0,0,0,6.76,6.81A6.52,6.52,0,0,0,45.25,114.9Zm-6.84,25.51a6.23,6.23,0,0,0,6.85-6.16,6.46,6.46,0,0,0-6.18-7,6.67,6.67,0,0,0-6.95,6.28A6.43,6.43,0,0,0,38.41,140.41Zm124.59,0a6.4,6.4,0,0,0,6.47-6.64,6.57,6.57,0,0,0-6.71-6.49,6.47,6.47,0,0,0-6.42,6.73A6.29,6.29,0,0,0,163,140.43Z"/></svg>